<svg width="77" height="66" viewBox="0 0 77 66" fill="none" xmlns="http://www.w3.org/2000/svg">
<path fill-rule="evenodd" clip-rule="evenodd" d="M59.0178 52.4829C53.8234 58.0957 46.4144 61.6024 38.2016 61.6024C29.9888 61.6024 22.5798 58.0957 17.3854 52.4829H11.7017C17.675 60.6784 27.3201 66 38.2016 66C49.0832 66 58.7283 60.6784 64.7016 52.4829H59.0178ZM19.1821 11.7395C24.2231 7.17378 30.8942 4.39756 38.2016 4.39756C45.5091 4.39756 52.1802 7.17378 57.2212 11.7395H63.3109C57.2887 4.56049 48.275 0 38.2016 0C28.1283 0 19.1146 4.56049 13.0924 11.7395H19.1821Z" fill="#FEFE2A"/>
<path d="M21.7809 26.8757L22.3475 25.6859L17.6825 17.3381V16.9793H20.7988L23.8017 22.8151H23.8961L26.578 16.9793H29.5809V17.2626L24.5949 27.3479C24.2676 28.0655 23.9402 28.651 23.6128 29.1043C23.2855 29.5576 22.8889 29.929 22.423 30.2186C21.9697 30.5208 21.4283 30.6656 20.7988 30.653C20.1818 30.6404 19.4704 30.483 18.6646 30.1808L19.0423 27.8767C19.6845 28.1663 20.2259 28.2355 20.6666 28.0844C21.1073 27.9333 21.4787 27.5304 21.7809 26.8757ZM31.64 20.9643H32.7354L37.2115 29.8975V30.1997H34.3785L33.302 27.7256L32.2066 24.8171H32.1688L31.0545 27.7256L29.978 30.1997H27.1639V29.8975L31.64 20.9643ZM44.3306 28.8021C44.0788 29.3309 43.6507 29.7275 43.0463 29.992C42.4545 30.2438 41.8313 30.3697 41.1766 30.3697C40.2952 30.3697 39.5272 30.1116 38.8724 29.5953C38.2303 29.0665 37.8966 28.374 37.8715 27.5178C37.8211 26.4476 38.1296 25.6355 38.7969 25.0815C39.4642 24.5149 40.333 24.2316 41.4032 24.2316C42.3979 24.2316 43.2037 24.4268 43.8207 24.8171V24.1938C43.8207 23.3251 43.0652 22.8907 41.5543 22.8907C40.4589 22.8907 39.5838 23.0733 38.9291 23.4384L38.5891 21.5498C39.546 21.0965 40.6855 20.8698 42.0076 20.8698C44.9035 20.8698 46.3514 22.003 46.3514 24.2694V27.5556C46.3514 27.8074 46.3514 27.9837 46.3514 28.0844C46.364 28.1852 46.3955 28.3048 46.4459 28.4433C46.4962 28.5692 46.5781 28.651 46.6914 28.6888C46.8173 28.7266 46.9873 28.7392 47.2013 28.7266L47.2202 30.1997C46.7417 30.2878 46.2885 30.3319 45.8604 30.3319C45.4323 30.3319 45.0672 30.206 44.765 29.9542C44.4754 29.6898 44.3306 29.3058 44.3306 28.8021ZM43.764 26.9324V26.4602C43.2478 26.1077 42.6182 25.9314 41.8754 25.9314C41.4347 25.9566 41.0758 26.0951 40.7988 26.3469C40.5218 26.5861 40.4085 26.9198 40.4589 27.3479C40.4841 27.6626 40.6163 27.9082 40.8555 28.0844C41.0947 28.2481 41.378 28.33 41.7054 28.33C42.1964 28.33 42.6497 28.2103 43.0652 27.9711C43.4933 27.7193 43.7262 27.373 43.764 26.9324ZM51.3886 22.4941C51.6278 21.9527 52.0119 21.5435 52.5407 21.2665C53.0695 20.9769 53.6424 20.8321 54.2593 20.8321C55.531 20.8321 56.532 21.2979 57.2623 22.2297C57.9925 23.1488 58.3577 24.2631 58.3577 25.5726C58.3577 26.4539 58.1688 27.2597 57.7911 27.99C57.4134 28.7077 56.9223 29.2617 56.318 29.652C55.7136 30.0297 55.0211 30.2564 54.2405 30.3319C53.4724 30.4075 52.6918 30.2312 51.8986 29.8031V34.8646H49.2545V24.175C49.2545 24.1246 49.2545 24.0365 49.2545 23.9106C49.2545 23.7721 49.2545 23.6839 49.2545 23.6461C49.2545 23.5958 49.2482 23.5202 49.2356 23.4195C49.2356 23.3188 49.2293 23.2558 49.2167 23.2306C49.2041 23.1929 49.1852 23.1425 49.16 23.0796C49.1348 23.004 49.0971 22.9536 49.0467 22.9285C49.0089 22.9033 48.9586 22.8781 48.8956 22.8529C48.8453 22.8151 48.776 22.7963 48.6879 22.7963C48.5997 22.7963 48.5053 22.7963 48.4046 22.7963L48.3857 21.0398C48.7382 20.9643 49.0719 20.9265 49.3867 20.9265C49.7014 20.9139 50.0162 20.9454 50.331 21.0209C50.6583 21.0839 50.9165 21.2413 51.1053 21.4931C51.2942 21.7449 51.3886 22.0786 51.3886 22.4941ZM51.823 25.2326V27.6123C52.4777 27.9522 53.0884 28.1159 53.655 28.1033C54.2342 28.0781 54.7189 27.8389 55.1092 27.3856C55.4996 26.9198 55.6947 26.3154 55.6947 25.5726C55.6947 24.9178 55.5184 24.3512 55.1659 23.8728C54.8259 23.3943 54.3412 23.1551 53.7116 23.1551C53.1451 23.1677 52.6918 23.3754 52.3518 23.7783C52.0119 24.1813 51.8356 24.666 51.823 25.2326Z" fill="#333333"/>
<path d="M22.4474 37.5558C22.4474 37.2882 22.3948 37.0564 22.2897 36.8605C22.1894 36.6646 22.046 36.5164 21.8596 36.4161C21.678 36.3109 21.4821 36.2345 21.2719 36.1867C21.0664 36.1389 20.837 36.1126 20.5837 36.1079V39.0109C21.8262 38.9727 22.4474 38.4876 22.4474 37.5558ZM18.1681 37.5558C18.1681 38.4876 18.7917 38.9727 20.039 39.0109V36.1079C19.7857 36.1126 19.5539 36.1389 19.3437 36.1867C19.1334 36.2345 18.9351 36.3109 18.7487 36.4161C18.5671 36.5164 18.4238 36.6646 18.3186 36.8605C18.2183 37.0564 18.1681 37.2882 18.1681 37.5558ZM20.0318 40.0789V39.5127C19.6973 39.5079 19.3867 39.4697 19.0999 39.398C18.818 39.3215 18.5576 39.2092 18.3186 39.0611C18.0845 38.9129 17.9005 38.7122 17.7667 38.459C17.6329 38.2009 17.566 37.8999 17.566 37.5558C17.566 37.2117 17.6329 36.9131 17.7667 36.6598C17.9005 36.4017 18.0845 36.1987 18.3186 36.0505C18.5576 35.9024 18.818 35.7925 19.0999 35.7208C19.3819 35.6443 19.6901 35.6013 20.0246 35.5918V35.047H20.5909V35.5918C20.935 35.6013 21.248 35.6419 21.5299 35.7136C21.8118 35.7853 22.0699 35.8952 22.3041 36.0433C22.5382 36.1867 22.7198 36.3874 22.8488 36.6455C22.9826 36.9035 23.0495 37.207 23.0495 37.5558C23.0495 37.9046 22.9826 38.2081 22.8488 38.4661C22.715 38.7242 22.5287 38.9273 22.2897 39.0754C22.0556 39.2188 21.7975 39.3263 21.5156 39.398C21.2336 39.4697 20.9254 39.5079 20.5909 39.5127V40.0789H20.0318ZM25.522 36.5379C26.105 36.5427 26.5303 36.7124 26.7979 37.0469C27.0655 37.3766 27.1515 37.8282 27.056 38.4016H24.3106C24.2915 38.7887 24.4157 39.0993 24.6833 39.3335C24.9509 39.5676 25.2855 39.6847 25.6869 39.6847C26.0596 39.6847 26.4491 39.6011 26.8553 39.4338L26.9413 39.8567C26.5255 40.0527 26.1026 40.1506 25.6725 40.1506C25.0895 40.1506 24.6188 39.9786 24.2604 39.6345C23.902 39.2905 23.7324 38.8293 23.7515 38.2511C23.7706 37.7207 23.9474 37.3025 24.2819 36.9967C24.6164 36.6909 25.0298 36.5379 25.522 36.5379ZM25.522 36.9824C25.2018 36.9824 24.9342 37.0708 24.7192 37.2476C24.5089 37.4196 24.3799 37.6609 24.3321 37.9715H26.5829C26.602 37.6562 26.5112 37.4124 26.3105 37.2404C26.1098 37.0684 25.8469 36.9824 25.522 36.9824ZM28.5233 37.1902C28.7957 36.7458 29.2162 36.5236 29.7849 36.5236C30.2723 36.5236 30.6546 36.6956 30.9318 37.0397C31.209 37.379 31.3475 37.8067 31.3475 38.3228C31.3475 38.6955 31.2615 39.0252 31.0895 39.312C30.9175 39.5939 30.7 39.8018 30.4372 39.9356C30.1744 40.0646 29.8781 40.1172 29.5484 40.0933C29.2186 40.0694 28.9032 39.9571 28.6022 39.7564V41.8494H28.0431V37.7708C28.0431 37.4554 28.0311 37.2643 28.0072 37.1974C27.9547 37.0588 27.8304 37.0015 27.6345 37.0254L27.6273 36.6096C27.9188 36.5618 28.1434 36.5833 28.3011 36.6741C28.4588 36.7601 28.5329 36.9322 28.5233 37.1902ZM28.5878 38.1794V39.2475C28.8985 39.4864 29.2234 39.6106 29.5627 39.6202C29.9068 39.6297 30.1935 39.5174 30.4229 39.2833C30.657 39.0491 30.7741 38.729 30.7741 38.3228C30.7741 37.95 30.6809 37.6418 30.4945 37.3981C30.3129 37.1544 30.0406 37.0325 29.6774 37.0325C29.362 37.0325 29.1039 37.1472 28.9032 37.3766C28.7025 37.6012 28.5974 37.8688 28.5878 38.1794ZM33.9902 39.2116H33.9329L32.7645 37.7995V40.0574H32.2197V36.6168H32.4061L33.9687 38.5091L35.5385 36.6168H35.7177V40.0574H35.1801V37.7995L33.9902 39.2116ZM38.3531 36.5379C38.9361 36.5427 39.3614 36.7124 39.629 37.0469C39.8966 37.3766 39.9826 37.8282 39.887 38.4016H37.1417C37.1225 38.7887 37.2468 39.0993 37.5144 39.3335C37.782 39.5676 38.1165 39.6847 38.5179 39.6847C38.8907 39.6847 39.2801 39.6011 39.6863 39.4338L39.7723 39.8567C39.3566 40.0527 38.9337 40.1506 38.5036 40.1506C37.9206 40.1506 37.4499 39.9786 37.0915 39.6345C36.7331 39.2905 36.5634 38.8293 36.5826 38.2511C36.6017 37.7207 36.7785 37.3025 37.113 36.9967C37.4475 36.6909 37.8609 36.5379 38.3531 36.5379ZM38.3531 36.9824C38.0329 36.9824 37.7653 37.0708 37.5502 37.2476C37.34 37.4196 37.2109 37.6609 37.1632 37.9715H39.4139C39.433 37.6562 39.3422 37.4124 39.1415 37.2404C38.9408 37.0684 38.678 36.9824 38.3531 36.9824ZM41.3544 37.1902C41.6268 36.7458 42.0473 36.5236 42.616 36.5236C43.1034 36.5236 43.4857 36.6956 43.7628 37.0397C44.04 37.379 44.1786 37.8067 44.1786 38.3228C44.1786 38.6955 44.0926 39.0252 43.9205 39.312C43.7485 39.5939 43.5311 39.8018 43.2683 39.9356C43.0054 40.0646 42.7091 40.1172 42.3794 40.0933C42.0497 40.0694 41.7343 39.9571 41.4332 39.7564V41.8494H40.8741V37.7708C40.8741 37.4554 40.8622 37.2643 40.8383 37.1974C40.7857 37.0588 40.6615 37.0015 40.4656 37.0254L40.4584 36.6096C40.7499 36.5618 40.9745 36.5833 41.1322 36.6741C41.2899 36.7601 41.3639 36.9322 41.3544 37.1902ZM41.4189 38.1794V39.2475C41.7295 39.4864 42.0545 39.6106 42.3938 39.6202C42.7378 39.6297 43.0245 39.5174 43.2539 39.2833C43.4881 39.0491 43.6052 38.729 43.6052 38.3228C43.6052 37.95 43.512 37.6418 43.3256 37.3981C43.144 37.1544 42.8716 37.0325 42.5084 37.0325C42.193 37.0325 41.935 37.1472 41.7343 37.3766C41.5336 37.6012 41.4285 37.8688 41.4189 38.1794ZM48.2549 37.6705H47.7173C47.6265 37.465 47.4879 37.3073 47.3016 37.1974C47.1152 37.0875 46.9073 37.0325 46.6779 37.0325C46.3339 37.0325 46.0328 37.1472 45.7748 37.3766C45.5167 37.606 45.3877 37.9238 45.3877 38.3299C45.3877 38.7314 45.5143 39.0491 45.7676 39.2833C46.0209 39.5174 46.3148 39.6345 46.6493 39.6345C46.8882 39.6345 47.108 39.5724 47.3087 39.4482C47.5094 39.3239 47.6552 39.1447 47.746 38.9106H48.2907C48.1904 39.3024 47.9849 39.6035 47.6743 39.8137C47.3685 40.024 47.0244 40.1291 46.6421 40.1291C46.1547 40.1291 45.7294 39.9714 45.3662 39.656C45.003 39.3359 44.8214 38.8938 44.8214 38.3299C44.8214 37.7613 45.003 37.3193 45.3662 37.0039C45.7342 36.6837 46.1642 36.526 46.6564 36.5308C47.0244 36.5355 47.3565 36.6359 47.6528 36.8318C47.9491 37.0278 48.1498 37.3073 48.2549 37.6705ZM50.4584 40.0718H49.1108V36.6168H49.6556V37.7493H50.4584C50.7308 37.7493 50.9745 37.7828 51.1895 37.8497C51.4046 37.9166 51.5862 38.0408 51.7343 38.2224C51.8872 38.3992 51.9637 38.6262 51.9637 38.9034C51.9637 39.3096 51.8179 39.6059 51.5264 39.7922C51.2397 39.9786 50.8837 40.0718 50.4584 40.0718ZM50.4512 38.1938H49.6556V39.613H50.4512C50.7284 39.613 50.9578 39.5581 51.1394 39.4482C51.3257 39.3335 51.4189 39.1519 51.4189 38.9034C51.4189 38.6597 51.3257 38.4805 51.1394 38.3658C50.9578 38.2511 50.7284 38.1938 50.4512 38.1938ZM53.2394 38.0791H53.6982C54.6061 38.0791 55.0601 37.5892 55.0601 36.6096H55.5906C55.6049 37.4985 55.2775 38.0719 54.6085 38.3299L55.7626 40.0073V40.0718H55.1605L54.1139 38.502C54.004 38.5259 53.8631 38.5378 53.691 38.5378H53.2394V40.0718H52.6732V34.9251H53.2394V38.0791ZM57.9881 36.5379C58.5711 36.5427 58.9964 36.7124 59.2641 37.0469C59.5317 37.3766 59.6177 37.8282 59.5221 38.4016H56.7767C56.7576 38.7887 56.8819 39.0993 57.1495 39.3335C57.4171 39.5676 57.7516 39.6847 58.153 39.6847C58.5257 39.6847 58.9152 39.6011 59.3214 39.4338L59.4074 39.8567C58.9917 40.0527 58.5688 40.1506 58.1387 40.1506C57.5557 40.1506 57.085 39.9786 56.7266 39.6345C56.3682 39.2905 56.1985 38.8293 56.2176 38.2511C56.2368 37.7207 56.4136 37.3025 56.7481 36.9967C57.0826 36.6909 57.4959 36.5379 57.9881 36.5379ZM57.9881 36.9824C57.668 36.9824 57.4004 37.0708 57.1853 37.2476C56.9751 37.4196 56.846 37.6609 56.7983 37.9715H59.049C59.0681 37.6562 58.9773 37.4124 58.7766 37.2404C58.5759 37.0684 58.3131 36.9824 57.9881 36.9824ZM15.3289 47.0754H15.8737C15.845 47.4434 15.6897 47.7158 15.4078 47.8926C15.1258 48.0694 14.777 48.1578 14.3612 48.1578C13.9216 48.1482 13.5584 48.0598 13.2717 47.8926C12.985 47.7253 12.8416 47.4744 12.8416 47.1399C12.8368 46.9822 12.8631 46.8437 12.9205 46.7242C12.9778 46.6047 13.0495 46.5091 13.1355 46.4375C13.2215 46.3658 13.3338 46.3037 13.4724 46.2511C13.6158 46.1985 13.7472 46.1627 13.8666 46.1436C13.9861 46.1197 14.1319 46.0958 14.3039 46.0719C14.6432 46.0241 14.8773 45.9668 15.0064 45.8999C15.1354 45.833 15.2023 45.7183 15.2071 45.5558C15.2166 45.3694 15.1402 45.2285 14.9777 45.1329C14.8152 45.0373 14.6121 44.9895 14.3684 44.9895C14.1199 44.9895 13.9073 45.0373 13.7304 45.1329C13.5584 45.2237 13.4724 45.3575 13.4724 45.5343H12.9348C12.9252 45.2189 13.0638 44.9752 13.3505 44.8032C13.6373 44.6311 13.9765 44.5451 14.3684 44.5451C14.7603 44.5451 15.0852 44.6311 15.3433 44.8032C15.6061 44.9752 15.7327 45.2308 15.7232 45.5701C15.7184 45.7087 15.6873 45.8306 15.63 45.9357C15.5774 46.0408 15.5105 46.1245 15.4293 46.1866C15.3528 46.2487 15.2501 46.3037 15.121 46.3514C14.992 46.3945 14.8702 46.4279 14.7555 46.4518C14.6456 46.4709 14.5118 46.49 14.3541 46.5091C14.0148 46.5569 13.7687 46.6286 13.6158 46.7242C13.4628 46.815 13.3864 46.9536 13.3864 47.1399C13.3959 47.3359 13.4915 47.4792 13.6731 47.57C13.8595 47.6608 14.0888 47.7062 14.3612 47.7062C14.6145 47.7062 14.8343 47.6536 15.0207 47.5485C15.2071 47.4386 15.3098 47.2809 15.3289 47.0754ZM20.1023 46.3371C20.1023 46.6238 20.0498 46.8843 19.9446 47.1184C19.8395 47.3526 19.7009 47.5413 19.5289 47.6847C19.3616 47.8281 19.1681 47.9404 18.9483 48.0216C18.7332 48.0981 18.511 48.1363 18.2816 48.1363C18.0523 48.1363 17.8277 48.0981 17.6078 48.0216C17.3928 47.9404 17.1993 47.8281 17.0272 47.6847C16.86 47.5413 16.7238 47.355 16.6187 47.1256C16.5135 46.8914 16.461 46.6286 16.461 46.3371C16.461 46.0456 16.5135 45.7828 16.6187 45.5486C16.7238 45.3145 16.86 45.1257 17.0272 44.9824C17.1993 44.839 17.3928 44.7291 17.6078 44.6526C17.8277 44.5714 18.0523 44.5308 18.2816 44.5308C18.511 44.5308 18.7332 44.5714 18.9483 44.6526C19.1681 44.7291 19.3616 44.839 19.5289 44.9824C19.7009 45.1257 19.8395 45.3145 19.9446 45.5486C20.0498 45.7828 20.1023 46.0456 20.1023 46.3371ZM17.2136 45.606C17.0894 45.8115 17.0272 46.0552 17.0272 46.3371C17.0272 46.6191 17.0894 46.8628 17.2136 47.0683C17.3379 47.2737 17.4932 47.4243 17.6795 47.5198C17.8659 47.6106 18.0666 47.656 18.2816 47.656C18.5015 47.656 18.7046 47.6106 18.8909 47.5198C19.0773 47.4243 19.2326 47.2737 19.3568 47.0683C19.4811 46.8628 19.5432 46.6191 19.5432 46.3371C19.5432 46.0552 19.4811 45.8115 19.3568 45.606C19.2326 45.4005 19.0773 45.2524 18.8909 45.1616C18.7046 45.0708 18.5015 45.0254 18.2816 45.0254C18.0666 45.0254 17.8659 45.0708 17.6795 45.1616C17.4932 45.2524 17.3379 45.4005 17.2136 45.606ZM24.1713 45.6705H23.6337C23.5429 45.465 23.4043 45.3073 23.218 45.1974C23.0316 45.0875 22.8237 45.0325 22.5943 45.0325C22.2503 45.0325 21.9492 45.1472 21.6912 45.3766C21.4331 45.606 21.3041 45.9238 21.3041 46.3299C21.3041 46.7314 21.4307 47.0491 21.684 47.2833C21.9373 47.5174 22.2312 47.6345 22.5657 47.6345C22.8046 47.6345 23.0244 47.5724 23.2251 47.4482C23.4258 47.3239 23.5716 47.1447 23.6624 46.9106H24.2071C24.1068 47.3024 23.9013 47.6035 23.5907 47.8137C23.2849 48.024 22.9408 48.1291 22.5585 48.1291C22.0711 48.1291 21.6458 47.9714 21.2826 47.656C20.9194 47.3359 20.7378 46.8938 20.7378 46.3299C20.7378 45.7613 20.9194 45.3193 21.2826 45.0039C21.6505 44.6837 22.0806 44.526 22.5728 44.5308C22.9408 44.5355 23.2729 44.6359 23.5692 44.8318C23.8655 45.0278 24.0662 45.3073 24.1713 45.6705ZM24.7046 44.9609L24.6975 44.5953C24.989 44.5236 25.2207 44.5403 25.3928 44.6455C25.5696 44.7506 25.658 44.9346 25.658 45.1974C25.8587 44.7625 26.2625 44.5451 26.8694 44.5451C27.309 44.5451 27.6507 44.6813 27.8944 44.9537C28.1381 45.2261 28.26 45.5797 28.26 46.0146V47.312C28.2648 47.4697 28.2934 47.5772 28.346 47.6345C28.3986 47.6871 28.5133 47.7014 28.6901 47.6775V48.0718C28.3556 48.1339 28.1047 48.1124 27.9374 48.0073C27.775 47.8974 27.6937 47.6704 27.6937 47.3263V46.0146C27.6937 45.7135 27.6005 45.4698 27.4142 45.2834C27.2326 45.097 27.0008 45.0039 26.7189 45.0039C26.4274 45.0039 26.1837 45.0994 25.9877 45.2906C25.7966 45.4817 25.701 45.7326 25.701 46.0432V48.0718H25.1347V45.5988C25.1347 45.5797 25.1347 45.551 25.1347 45.5128C25.1347 45.4411 25.1347 45.3885 25.1347 45.3551C25.1347 45.3216 25.1323 45.281 25.1276 45.2332C25.1276 45.1807 25.1228 45.1448 25.1132 45.1257C25.1084 45.1018 25.0989 45.0755 25.0846 45.0469C25.0702 45.0182 25.0511 44.9991 25.0272 44.9895C25.0081 44.98 24.9818 44.9704 24.9484 44.9609C24.9197 44.9513 24.8838 44.9489 24.8408 44.9537C24.8026 44.9537 24.7572 44.9561 24.7046 44.9609ZM32.8074 46.3371C32.8074 46.6238 32.7548 46.8843 32.6497 47.1184C32.5446 47.3526 32.406 47.5413 32.2339 47.6847C32.0667 47.8281 31.8731 47.9404 31.6533 48.0216C31.4383 48.0981 31.2161 48.1363 30.9867 48.1363C30.7573 48.1363 30.5327 48.0981 30.3129 48.0216C30.0979 47.9404 29.9043 47.8281 29.7323 47.6847C29.565 47.5413 29.4288 47.355 29.3237 47.1256C29.2186 46.8914 29.166 46.6286 29.166 46.3371C29.166 46.0456 29.2186 45.7828 29.3237 45.5486C29.4288 45.3145 29.565 45.1257 29.7323 44.9824C29.9043 44.839 30.0979 44.7291 30.3129 44.6526C30.5327 44.5714 30.7573 44.5308 30.9867 44.5308C31.2161 44.5308 31.4383 44.5714 31.6533 44.6526C31.8731 44.7291 32.0667 44.839 32.2339 44.9824C32.406 45.1257 32.5446 45.3145 32.6497 45.5486C32.7548 45.7828 32.8074 46.0456 32.8074 46.3371ZM29.9187 45.606C29.7944 45.8115 29.7323 46.0552 29.7323 46.3371C29.7323 46.6191 29.7944 46.8628 29.9187 47.0683C30.0429 47.2737 30.1982 47.4243 30.3846 47.5198C30.571 47.6106 30.7717 47.656 30.9867 47.656C31.2065 47.656 31.4096 47.6106 31.596 47.5198C31.7823 47.4243 31.9377 47.2737 32.0619 47.0683C32.1861 46.8628 32.2483 46.6191 32.2483 46.3371C32.2483 46.0552 32.1861 45.8115 32.0619 45.606C31.9377 45.4005 31.7823 45.2524 31.596 45.1616C31.4096 45.0708 31.2065 45.0254 30.9867 45.0254C30.7717 45.0254 30.571 45.0708 30.3846 45.1616C30.1982 45.2524 30.0429 45.4005 29.9187 45.606ZM36.1882 48.3585V47.8137C35.825 48.0431 35.4571 48.1626 35.0843 48.1721C34.6208 48.1865 34.2337 48.0312 33.9231 47.7062C33.6125 47.3765 33.4572 46.9273 33.4572 46.3586C33.4572 45.7756 33.634 45.3312 33.9876 45.0254C34.3413 44.7195 34.7976 44.5666 35.3567 44.5666C35.8059 44.5666 36.2647 44.6717 36.733 44.882V48.3155C36.733 48.8746 36.5801 49.2927 36.2742 49.5699C35.9732 49.8471 35.5837 49.9856 35.1059 49.9856C34.628 49.9856 34.1597 49.8566 33.7009 49.5986L33.7941 49.1542C34.2433 49.3979 34.6782 49.5173 35.0987 49.5126C35.4236 49.5078 35.6865 49.4122 35.8872 49.2258C36.0879 49.0442 36.1882 48.7551 36.1882 48.3585ZM36.1811 47.3263V45.2046C35.8943 45.0947 35.6148 45.0397 35.3424 45.0397C34.9601 45.0397 34.6423 45.1544 34.389 45.3838C34.1406 45.6084 34.0163 45.9309 34.0163 46.3514C34.0163 46.7815 34.1262 47.1137 34.346 47.3478C34.5659 47.582 34.843 47.6967 35.1775 47.6919C35.5168 47.6919 35.8513 47.57 36.1811 47.3263ZM40.1247 47.4482C40.0052 47.6728 39.8189 47.8424 39.5656 47.9571C39.3171 48.0718 39.0495 48.1291 38.7628 48.1291C38.4235 48.1291 38.1344 48.0359 37.8955 47.8496C37.6565 47.6584 37.5323 47.3956 37.5227 47.0611C37.5132 46.6836 37.6374 46.3897 37.8955 46.1794C38.1583 45.9692 38.4808 45.864 38.8631 45.864C39.3171 45.864 39.7137 45.9596 40.053 46.1507V45.7278C40.053 45.5462 39.9909 45.3981 39.8667 45.2834C39.7472 45.1639 39.611 45.0851 39.4581 45.0469C39.3052 45.0086 39.1403 44.9895 38.9635 44.9895C38.5334 44.9895 38.175 45.0732 37.8883 45.2404L37.7951 44.8103C38.1487 44.6287 38.5669 44.5379 39.0495 44.5379C39.4891 44.5379 39.8523 44.6335 40.139 44.8247C40.4305 45.0158 40.5715 45.3216 40.562 45.7422V47.1829C40.562 47.1925 40.562 47.2092 40.562 47.2331C40.562 47.2857 40.562 47.3239 40.562 47.3478C40.562 47.3717 40.562 47.4052 40.562 47.4482C40.5667 47.4864 40.5715 47.5127 40.5763 47.527C40.5811 47.5413 40.5882 47.5652 40.5978 47.5987C40.6074 47.6321 40.6169 47.6536 40.6265 47.6632C40.6408 47.668 40.6575 47.6823 40.6766 47.7062C40.7005 47.7253 40.7244 47.7325 40.7483 47.7277C40.777 47.7229 40.8081 47.7277 40.8415 47.742C40.8797 47.7516 40.9204 47.7468 40.9634 47.7277L40.9705 48.0933C40.6695 48.1411 40.452 48.122 40.3182 48.0359C40.1892 47.9451 40.1247 47.7492 40.1247 47.4482ZM40.0459 46.9034V46.5737C39.7161 46.3873 39.353 46.2941 38.9563 46.2941C38.7078 46.2941 38.4952 46.361 38.3184 46.4948C38.1463 46.6238 38.0651 46.8054 38.0747 47.0396C38.0842 47.2451 38.1631 47.398 38.3112 47.4983C38.4641 47.5987 38.6481 47.6489 38.8631 47.6489C39.1212 47.6489 39.3697 47.5844 39.6086 47.4553C39.8475 47.3263 39.9933 47.1423 40.0459 46.9034ZM42.2819 45.1902C42.5543 44.7458 42.9748 44.5236 43.5435 44.5236C44.0309 44.5236 44.4132 44.6956 44.6904 45.0397C44.9675 45.379 45.1061 45.8067 45.1061 46.3228C45.1061 46.6955 45.0201 47.0252 44.8481 47.312C44.676 47.5939 44.4586 47.8018 44.1958 47.9356C43.9329 48.0646 43.6367 48.1172 43.3069 48.0933C42.9772 48.0694 42.6618 47.9571 42.3607 47.7564V49.8494H41.8016V45.7708C41.8016 45.4554 41.7897 45.2643 41.7658 45.1974C41.7132 45.0588 41.589 45.0015 41.3931 45.0254L41.3859 44.6096C41.6774 44.5618 41.902 44.5833 42.0597 44.6741C42.2174 44.7601 42.2915 44.9322 42.2819 45.1902ZM42.3464 46.1794V47.2475C42.657 47.4864 42.982 47.6106 43.3213 47.6202C43.6653 47.6297 43.952 47.5174 44.1814 47.2833C44.4156 47.0491 44.5327 46.729 44.5327 46.3228C44.5327 45.95 44.4395 45.6418 44.2531 45.3981C44.0715 45.1544 43.7991 45.0325 43.4359 45.0325C43.1206 45.0325 42.8625 45.1472 42.6618 45.3766C42.4611 45.6012 42.356 45.8688 42.3464 46.1794ZM49.1824 45.6705H48.6448C48.554 45.465 48.4154 45.3073 48.2291 45.1974C48.0427 45.0875 47.8348 45.0325 47.6054 45.0325C47.2614 45.0325 46.9603 45.1472 46.7023 45.3766C46.4442 45.606 46.3152 45.9238 46.3152 46.3299C46.3152 46.7314 46.4418 47.0491 46.6951 47.2833C46.9484 47.5174 47.2423 47.6345 47.5768 47.6345C47.8157 47.6345 48.0355 47.5724 48.2362 47.4482C48.4369 47.3239 48.5827 47.1447 48.6735 46.9106H49.2183C49.1179 47.3024 48.9124 47.6035 48.6018 47.8137C48.296 48.024 47.9519 48.1291 47.5696 48.1291C47.0822 48.1291 46.6569 47.9714 46.2937 47.656C45.9305 47.3359 45.7489 46.8938 45.7489 46.3299C45.7489 45.7613 45.9305 45.3193 46.2937 45.0039C46.6617 44.6837 47.0917 44.526 47.5839 44.5308C47.9519 44.5355 48.284 44.6359 48.5803 44.8318C48.8766 45.0278 49.0773 45.3073 49.1824 45.6705ZM49.7158 44.9895V44.6024C49.9977 44.526 50.2319 44.5427 50.4182 44.6526C50.6094 44.7625 50.7049 44.9322 50.7049 45.1616C50.8579 44.937 51.0275 44.7793 51.2139 44.6885C51.4002 44.5929 51.632 44.5451 51.9092 44.5451C52.1959 44.5451 52.4253 44.6168 52.5973 44.7601C52.7693 44.8987 52.8864 45.0851 52.9485 45.3193C53.0537 45.0564 53.2185 44.8605 53.4431 44.7315C53.6725 44.6024 53.9377 44.5379 54.2388 44.5379C55.0225 44.5379 55.4143 45.0325 55.4143 46.0217V47.1686C55.4143 47.2307 55.4143 47.2737 55.4143 47.2976C55.4143 47.3215 55.4167 47.3574 55.4215 47.4052C55.4263 47.4529 55.4311 47.484 55.4358 47.4983C55.4454 47.5127 55.4574 47.5342 55.4717 47.5628C55.486 47.5915 55.5028 47.6106 55.5219 47.6202C55.5458 47.6297 55.5744 47.6393 55.6079 47.6489C55.6413 47.6584 55.6796 47.6632 55.7226 47.6632C55.7704 47.6584 55.8253 47.6536 55.8874 47.6489V48.0646C55.5195 48.1411 55.2543 48.1196 55.0918 48.0001C54.9293 47.8806 54.8481 47.6369 54.8481 47.269V46.0217C54.8481 45.3431 54.5876 45.0039 54.0668 45.0039C53.78 45.0039 53.5459 45.1042 53.3643 45.3049C53.1875 45.5008 53.0991 45.7541 53.0991 46.0647V48.0718H52.5543V46.0647C52.5543 45.7446 52.4874 45.4889 52.3536 45.2977C52.2198 45.1066 52.0119 45.011 51.73 45.011C51.4337 45.011 51.1924 45.1066 51.006 45.2977C50.8244 45.4889 50.7336 45.7446 50.7336 46.0647V48.0718H50.1745V45.6562C50.1745 45.3599 50.1506 45.1687 50.1028 45.0827C50.0598 44.9919 49.9308 44.9609 49.7158 44.9895ZM58.053 42.8033C58.483 42.8033 58.8391 42.918 59.121 43.1473C59.4029 43.3767 59.5439 43.6993 59.5439 44.115C59.5391 44.354 59.4722 44.5642 59.3432 44.7458C59.2142 44.9274 59.0398 45.0612 58.8199 45.1472C59.5081 45.3097 59.8569 45.7876 59.8665 46.5808C59.8713 47.1208 59.704 47.5222 59.3647 47.7851C59.0254 48.0431 58.5858 48.1769 58.0458 48.1865C57.5249 48.1865 57.0303 48.1004 56.562 47.9284V44.1509C56.562 43.7351 56.703 43.4078 56.9849 43.1688C57.2717 42.9251 57.6277 42.8033 58.053 42.8033ZM57.114 45.6131V47.5485C57.4293 47.6584 57.7424 47.7134 58.053 47.7134C58.4305 47.7086 58.7363 47.613 58.9705 47.4267C59.2046 47.2355 59.3217 46.956 59.3217 46.588C59.3169 46.2009 59.207 45.9118 58.992 45.7207C58.7817 45.5295 58.4783 45.4363 58.0816 45.4411C57.7901 45.4411 57.4676 45.4985 57.114 45.6131ZM57.114 44.1437V45.1401C57.2286 45.1018 57.384 45.0684 57.5799 45.0397C57.7758 45.0062 57.9454 44.9776 58.0888 44.9537C58.2369 44.925 58.3851 44.8844 58.5332 44.8318C58.6814 44.7745 58.7937 44.6885 58.8701 44.5738C58.9514 44.4591 58.992 44.3109 58.992 44.1294C58.992 43.8713 58.9036 43.6682 58.7268 43.5201C58.55 43.3719 58.3301 43.2979 58.0673 43.2979C57.8045 43.2979 57.5799 43.3719 57.3935 43.5201C57.2071 43.6682 57.114 43.8761 57.114 44.1437ZM64.1465 46.3371C64.1465 46.6238 64.094 46.8843 63.9888 47.1184C63.8837 47.3526 63.7451 47.5413 63.5731 47.6847C63.4058 47.8281 63.2123 47.9404 62.9925 48.0216C62.7774 48.0981 62.5552 48.1363 62.3258 48.1363C62.0965 48.1363 61.8719 48.0981 61.652 48.0216C61.437 47.9404 61.2435 47.8281 61.0714 47.6847C60.9042 47.5413 60.768 47.355 60.6629 47.1256C60.5577 46.8914 60.5052 46.6286 60.5052 46.3371C60.5052 46.0456 60.5577 45.7828 60.6629 45.5486C60.768 45.3145 60.9042 45.1257 61.0714 44.9824C61.2435 44.839 61.437 44.7291 61.652 44.6526C61.8719 44.5714 62.0965 44.5308 62.3258 44.5308C62.5552 44.5308 62.7774 44.5714 62.9925 44.6526C63.2123 44.7291 63.4058 44.839 63.5731 44.9824C63.7451 45.1257 63.8837 45.3145 63.9888 45.5486C64.094 45.7828 64.1465 46.0456 64.1465 46.3371ZM61.2578 45.606C61.1336 45.8115 61.0714 46.0552 61.0714 46.3371C61.0714 46.6191 61.1336 46.8628 61.2578 47.0683C61.382 47.2737 61.5374 47.4243 61.7237 47.5198C61.9101 47.6106 62.1108 47.656 62.3258 47.656C62.5457 47.656 62.7488 47.6106 62.9351 47.5198C63.1215 47.4243 63.2768 47.2737 63.401 47.0683C63.5253 46.8628 63.5874 46.6191 63.5874 46.3371C63.5874 46.0552 63.5253 45.8115 63.401 45.606C63.2768 45.4005 63.1215 45.2524 62.9351 45.1616C62.7488 45.0708 62.5457 45.0254 62.3258 45.0254C62.1108 45.0254 61.9101 45.0708 61.7237 45.1616C61.5374 45.2524 61.382 45.4005 61.2578 45.606Z" fill="#333333"/>
</svg>
