<svg width="21" height="25" viewBox="0 0 21 25" fill="none" xmlns="http://www.w3.org/2000/svg">
<path d="M20.6809 20.6809C21.0443 21.0443 21.0464 21.6364 20.657 21.9717C19.0558 23.3507 17.1268 24.3047 15.0482 24.7375C12.6651 25.2337 10.189 25.0234 7.92376 24.1322C5.65856 23.241 3.70284 21.7079 2.29666 19.7209C0.890488 17.734 0.0950528 15.3797 0.00799662 12.947C-0.0790595 10.5144 0.546052 8.10928 1.8066 6.02689C3.06714 3.9445 4.90827 2.27547 7.10398 1.22467C9.29969 0.173876 11.7544 -0.212964 14.1669 0.111639C16.2712 0.394779 18.2634 1.20847 19.9591 2.46947C20.3715 2.7761 20.4117 3.36682 20.0752 3.75522C19.7388 4.14362 19.1533 4.18201 18.737 3.88076C17.3183 2.85415 15.6638 2.19068 13.9187 1.95588C11.8654 1.6796 9.77611 2.00885 7.90728 2.90322C6.03844 3.79758 4.4714 5.21815 3.39851 6.99053C2.32562 8.76292 1.79357 10.81 1.86766 12.8805C1.94176 14.951 2.61878 16.9548 3.81562 18.646C5.01246 20.3371 6.67703 21.642 8.60502 22.4005C10.533 23.159 12.6405 23.3381 14.6688 22.9157C16.3926 22.5568 17.9955 21.7768 19.3372 20.6514C19.7309 20.3211 20.3176 20.3176 20.6809 20.6809Z" fill="#E9A854"/>
</svg>
