<svg width="36" height="36" viewBox="0 0 36 36" fill="none" xmlns="http://www.w3.org/2000/svg">
<circle cx="18" cy="18" r="18" fill="#333333"/>
<path d="M21 10H15C12.239 10 10 12.239 10 15V21C10 23.761 12.239 26 15 26H21C23.761 26 26 23.761 26 21V15C26 12.239 23.761 10 21 10ZM24.5 21C24.5 22.93 22.93 24.5 21 24.5H15C13.07 24.5 11.5 22.93 11.5 21V15C11.5 13.07 13.07 11.5 15 11.5H21C22.93 11.5 24.5 13.07 24.5 15V21Z" fill="white"/>
<path d="M18 14C15.791 14 14 15.791 14 18C14 20.209 15.791 22 18 22C20.209 22 22 20.209 22 18C22 15.791 20.209 14 18 14ZM18 20.5C16.622 20.5 15.5 19.378 15.5 18C15.5 16.621 16.622 15.5 18 15.5C19.378 15.5 20.5 16.621 20.5 18C20.5 19.378 19.378 20.5 18 20.5Z" fill="white"/>
<path d="M22.3001 14.2327C22.5945 14.2327 22.8331 13.9941 22.8331 13.6997C22.8331 13.4054 22.5945 13.1667 22.3001 13.1667C22.0057 13.1667 21.7671 13.4054 21.7671 13.6997C21.7671 13.9941 22.0057 14.2327 22.3001 14.2327Z" fill="white"/>
</svg>
